<svg width="390" height="382" viewBox="0 0 390 382" fill="none" xmlns="http://www.w3.org/2000/svg">
<g filter="url(#filter0_d_4_220)">
<path d="M-53.6016 55.2643L19.9721 128.855C29.6297 138.515 41.0957 146.177 53.7151 151.406C66.3346 156.634 79.8603 159.325 93.5199 159.325H104.991C118.651 159.325 132.176 162.016 144.796 167.244C157.415 172.472 168.881 180.135 178.539 189.795L257.286 268.56C266.943 278.22 278.409 285.883 291.029 291.111C303.648 296.339 317.174 299.03 330.833 299.03H561.371C589.978 299.03 613.168 275.839 613.168 247.233C613.168 233.498 607.713 220.325 598.002 210.611L543.054 155.649C535.4 147.995 535.402 135.583 543.057 127.93C546.732 124.255 551.717 122.191 556.915 122.191C567.739 122.191 576.515 113.416 576.515 102.592C576.515 97.3947 574.45 92.41 570.776 88.7336L458.377 -23.6915C448.719 -33.3515 437.253 -41.0145 424.633 -46.2425C412.014 -51.4706 398.488 -54.1615 384.828 -54.1614H268.333C254.954 -54.1614 241.706 -56.797 229.346 -61.9177C216.986 -67.0384 205.755 -74.5437 196.296 -84.0052C186.836 -93.4671 175.605 -100.973 163.245 -106.094C150.884 -111.215 137.636 -113.85 124.256 -113.85L-9.42244 -113.85C-29.6348 -113.85 -46.02 -97.4649 -46.02 -77.2525C-46.02 -67.5478 -42.1654 -58.2404 -35.3039 -51.3773L-17.004 -33.0743C-6.90044 -22.9687 -6.90252 -6.58555 -17.0082 3.51805C-21.8604 8.36904 -28.4406 11.0943 -35.3018 11.0945C-49.5935 11.0945 -61.177 22.6801 -61.177 36.9697C-61.1771 43.8307 -58.4523 50.4109 -53.6016 55.2632V55.2643Z" fill="black"/>
</g>
<path d="M-53.6016 55.2643L19.9721 128.855C29.6297 138.515 41.0957 146.177 53.7151 151.406C66.3346 156.634 79.8603 159.325 93.5199 159.325H104.991C118.651 159.325 132.176 162.016 144.796 167.244C157.415 172.472 168.881 180.135 178.539 189.795L257.286 268.56C266.943 278.22 278.409 285.883 291.029 291.111C303.648 296.339 317.174 299.03 330.833 299.03H561.371C589.978 299.03 613.168 275.839 613.168 247.233C613.168 233.498 607.713 220.325 598.002 210.611L543.054 155.649C535.4 147.995 535.402 135.583 543.057 127.93C546.732 124.255 551.717 122.191 556.915 122.191C567.739 122.191 576.515 113.416 576.515 102.592C576.515 97.3947 574.45 92.41 570.776 88.7336L458.377 -23.6915C448.719 -33.3515 437.253 -41.0145 424.633 -46.2425C412.014 -51.4706 398.488 -54.1615 384.828 -54.1614H268.333C254.954 -54.1614 241.706 -56.797 229.346 -61.9177C216.986 -67.0384 205.755 -74.5437 196.296 -84.0052C186.836 -93.4671 175.605 -100.973 163.245 -106.094C150.884 -111.215 137.636 -113.85 124.256 -113.85L-9.42244 -113.85C-29.6348 -113.85 -46.02 -97.4649 -46.02 -77.2525C-46.02 -67.5478 -42.1654 -58.2404 -35.3039 -51.3773L-17.004 -33.0743C-6.90044 -22.9687 -6.90252 -6.58555 -17.0082 3.51805C-21.8604 8.36904 -28.4406 11.0943 -35.3018 11.0945C-49.5935 11.0945 -61.177 22.6801 -61.177 36.9697C-61.1771 43.8307 -58.4523 50.4109 -53.6016 55.2632V55.2643Z" fill="#2D314D"/>
<path fill-rule="evenodd" clip-rule="evenodd" d="M168.958 56.3043L242.532 129.895C252.19 139.555 263.656 147.218 276.275 152.446C288.895 157.674 302.42 160.365 316.08 160.365H327.551C341.211 160.365 354.736 163.056 367.356 168.284C379.975 173.512 391.441 181.175 401.099 190.835L479.846 269.6C489.503 279.26 500.969 286.923 513.589 292.151C526.208 297.379 539.734 300.07 553.393 300.07H783.931C812.538 300.07 835.728 276.879 835.728 248.273C835.728 234.538 830.273 221.365 820.562 211.651L765.614 156.689C757.96 149.035 757.962 136.624 765.617 128.97C769.292 125.295 774.277 123.231 779.475 123.231C790.299 123.231 799.075 114.456 799.075 103.632C799.075 98.4347 797.01 93.45 793.336 89.7736L680.937 -22.6514C671.279 -32.3115 659.813 -39.9744 647.193 -45.2025C634.574 -50.4306 621.048 -53.1214 607.388 -53.1213H490.893C477.514 -53.1214 464.266 -55.757 451.906 -60.8777C439.546 -65.9983 428.315 -73.5037 418.856 -82.9652C409.396 -92.4271 398.165 -99.9328 385.805 -105.054C373.444 -110.174 360.195 -112.81 346.816 -112.81H213.138C192.925 -112.81 176.54 -96.4249 176.54 -76.2125C176.54 -66.5077 180.395 -57.2004 187.256 -50.3373L205.555 -32.0343C215.658 -21.9286 215.656 -5.54551 205.551 4.55809C200.699 9.40908 194.118 12.1343 187.257 12.1345C172.965 12.1345 161.382 23.7201 161.382 38.0097C161.382 44.8707 164.107 51.4509 168.957 56.3033L168.958 56.3043Z" fill="url(#paint0_linear_4_220)"/>
<defs>
<filter id="filter0_d_4_220" x="-141.257" y="-191.85" width="834.505" height="573.04" filterUnits="userSpaceOnUse" color-interpolation-filters="sRGB">
<feFlood flood-opacity="0" result="BackgroundImageFix"/>
<feColorMatrix in="SourceAlpha" type="matrix" values="0 0 0 0 0 0 0 0 0 0 0 0 0 0 0 0 0 0 127 0" result="hardAlpha"/>
<feOffset dy="2.08"/>
<feGaussianBlur stdDeviation="40.04"/>
<feColorMatrix type="matrix" values="0 0 0 0 0 0 0 0 0 0 0 0 0 0 0 0 0 0 0.0240111 0"/>
<feBlend mode="normal" in2="BackgroundImageFix" result="effect1_dropShadow_4_220"/>
<feBlend mode="normal" in="SourceGraphic" in2="effect1_dropShadow_4_220" result="shape"/>
</filter>
<linearGradient id="paint0_linear_4_220" x1="161.382" y1="14808.3" x2="60170.9" y2="41979.6" gradientUnits="userSpaceOnUse">
<stop stop-color="#33D35E"/>
<stop offset="1" stop-color="#2AB6D9"/>
</linearGradient>
</defs>
</svg>
